<svg width="256" height="256" viewBox="0 0 256 256" fill="none" xmlns="http://www.w3.org/2000/svg">
<rect width="256" height="256" fill="#00FF00"/>
<path d="M73 96.5005L187.4 101.811L180.556 149.121L82.2889 152.5L73 96.5005Z" fill="white"/>
<path d="M168.2 185.3C168.2 191.925 162.823 197.3 156.196 197.3C149.568 197.3 144.2 191.925 144.2 185.3C144.2 178.675 149.568 173.3 156.196 173.3C162.823 173.3 168.2 178.675 168.2 185.3Z" fill="white" stroke="black" stroke-width="6.94038" stroke-miterlimit="10" stroke-linecap="round" stroke-linejoin="round"/>
<path d="M117 185.3C117 191.925 111.623 197.3 104.996 197.3C98.3681 197.3 93 191.925 93 185.3C93 178.675 98.3681 173.3 104.996 173.3C111.623 173.3 117 178.675 117 185.3Z" fill="white" stroke="black" stroke-width="6.94038" stroke-miterlimit="10" stroke-linecap="round" stroke-linejoin="round"/>
<path d="M156.2 173.3H89.1446C89.1446 173.3 83.2925 171.304 82.6432 164.473C82.0794 158.559 87.1518 152.5 91.543 152.5" stroke="black" stroke-width="6.94038" stroke-miterlimit="10" stroke-linecap="round" stroke-linejoin="round"/>
<path d="M73.8 97.3H175.799C185.308 97.3 189.922 106.493 188.847 111.449L186.019 128.906C186.019 128.906 183.505 143.726 182.498 145.676C181.49 147.626 179.601 152.5 173.745 152.5C167.889 152.5 92.7352 152.5 92.7352 152.5" stroke="black" stroke-width="6.94038" stroke-miterlimit="10" stroke-linecap="round" stroke-linejoin="round"/>
<path d="M186.6 116.5C186.6 116.5 185.558 125.612 175.602 125.612H90.5615H89.0024C84.3505 125.612 78.8511 129.989 79.4443 136.5" stroke="black" stroke-width="3.47019" stroke-miterlimit="10"/>
<path d="M82.6 164.5L69.1324 77.0563C69.1324 77.0563 67.3405 69.447 61 63.7" stroke="black" stroke-width="6.94038" stroke-miterlimit="10" stroke-linecap="round" stroke-linejoin="round"/>
</svg>
